<svg width="33" height="32" viewBox="0 0 33 32" fill="none" xmlns="http://www.w3.org/2000/svg">
<g clip-path="url(#clip0_1128_8286)">
<path d="M23.7101 18.28V13.71H9.9901V18.28H0.850098V32H32.8501V18.28H23.7101ZM9.9901 30.47H2.3801V19.81H9.9901V30.47ZM22.1801 30.47H11.5201V15.24H22.1801V30.47ZM31.3301 30.47H23.7101V19.81H31.3301V30.47Z" fill="#000001"/>
<path d="M29.8001 21.33H25.2301V22.86H28.2801V24.38H25.2301V25.9H28.2801V27.43H25.2301V28.95H29.8001V21.33Z" fill="#000001"/>
<path d="M29.8001 6.08997H26.7601V7.61997H29.8001V6.08997Z" fill="#000001"/>
<path d="M26.7601 0H25.2301V1.52H26.7601V0Z" fill="#000001"/>
<path d="M25.2301 1.52002H23.7101V3.05002H25.2301V1.52002Z" fill="#000001"/>
<path d="M19.1401 22.86H17.6101V16.76H14.5701V18.28H16.0901V22.86H14.5701V24.38H19.1401V22.86Z" fill="#000001"/>
<path d="M17.6101 0H16.0901V3.05H17.6101V0Z" fill="#000001"/>
<path d="M9.99011 4.56995V10.6599H11.5201V12.1899H22.1801V10.6599H23.7101V4.56995H22.1801V6.08995H20.6601V7.61995H19.1401V6.08995H17.6101V4.56995H16.0901V6.08995H14.5701V7.61995H13.0401V6.08995H11.5201V4.56995H9.99011ZM19.1401 9.13995H20.6601V10.6599H19.1401V9.13995ZM16.0901 9.13995H17.6101V10.6599H16.0901V9.13995ZM13.0401 9.13995H14.5701V10.6599H13.0401V9.13995Z" fill="#000001"/>
<path d="M9.99009 1.52002H8.47009V3.05002H9.99009V1.52002Z" fill="#000001"/>
<path d="M8.47007 0H6.95007V1.52H8.47007V0Z" fill="#000001"/>
<path d="M8.47015 27.43H5.42015V25.9H8.47015V21.33H3.90015V22.86H6.95015V24.38H3.90015V28.95H8.47015V27.43Z" fill="#000001"/>
<path d="M6.95015 6.08997H3.90015V7.61997H6.95015V6.08997Z" fill="#000001"/>
</g>
<defs>
<clipPath id="clip0_1128_8286">
<rect width="32" height="32" fill="white" transform="translate(0.850098)"/>
</clipPath>
</defs>
</svg>
